<?xml version="1.0" standalone="no"?>
<!DOCTYPE svg PUBLIC "-//W3C//DTD SVG 20010904//EN"
"http://www.w3.org/TR/2001/REC-SVG-20010904/DTD/svg10.dtd">
<svg version="1.0" xmlns="http://www.w3.org/2000/svg"
width="974.000000pt" height="974.000000pt" viewBox="0 0 974.000000 974.000000"
preserveAspectRatio="xMidYMid meet">
<metadata>
Created by potrace 1.11, written by Peter Selinger 2001-2013
</metadata>
<g transform="translate(0.000000,974.000000) scale(0.100000,-0.100000)"
fill="#000000" stroke="none">
<path d="M3302 9197 c3 -61 4 -62 33 -65 310 -27 587 -152 776 -349 113 -118
157 -190 207 -338 27 -79 72 -295 72 -346 0 -18 -17 -19 -469 -19 l-468 0
-114 67 c-106 61 -571 299 -630 322 -23 8 -30 6 -50 -15 -21 -23 -22 -28 -11
-67 42 -145 63 -234 79 -327 16 -97 18 -246 21 -2010 3 -1441 0 -2140 -12
-2870 -9 -531 -18 -1007 -21 -1058 l-4 -92 83 0 c45 0 158 3 249 7 l167 6 40
34 40 35 0 284 0 284 560 0 560 0 0 -47 c0 -101 -21 -475 -35 -628 -29 -307
-65 -484 -131 -644 -93 -223 -218 -368 -389 -451 -99 -47 -159 -60 -283 -60
-175 0 -284 46 -377 158 -60 72 -102 152 -175 337 -121 303 -194 411 -325 476
-122 60 -287 62 -409 6 -149 -70 -235 -231 -223 -417 23 -334 302 -548 852
-649 459 -85 979 -35 1452 140 352 130 625 310 798 525 118 146 182 263 256
464 41 114 93 430 104 630 3 63 8 125 11 137 l4 23 420 0 420 0 0 -305 0 -305
103 0 c57 0 172 3 256 7 l152 6 40 41 41 40 -7 261 c-3 143 -11 451 -17 685
-6 234 -12 1352 -14 2485 l-4 2060 91 44 c98 48 172 100 190 132 14 28 14 102
-2 131 -34 65 -137 158 -365 329 l-172 129 -64 0 -63 0 -50 -63 c-28 -34 -90
-110 -140 -169 l-90 -107 -354 -1 -354 0 7 73 c36 402 157 635 422 815 132 90
311 142 554 160 l94 7 1 60 0 60 -1668 2 -1668 3 3 -63z m1102 -1396 c3 -5 6
-491 6 -1080 l0 -1071 -557 -1 -558 0 -3 1068 c-1 587 0 1073 2 1080 6 14
1101 19 1110 4z m1974 -1072 l-3 -1080 -412 0 -413 1 0 -140 0 -140 415 0 415
0 0 -1210 0 -1210 -417 2 -418 3 -3 2415 c-1 1328 0 2421 3 2427 3 10 99 13
420 12 l415 0 -2 -1080z m-1968 -2569 l0 -1210 -557 2 -558 3 -3 1208 -2 1207
560 0 560 0 0 -1210z"/>
</g>
</svg>
